<?xml version="1.0" encoding="UTF-8" standalone="no"?>
<!DOCTYPE svg PUBLIC "-//W3C//DTD SVG 1.1//EN" "http://www.w3.org/Graphics/SVG/1.1/DTD/svg11.dtd">
<svg version="1.1" xmlns="http://www.w3.org/2000/svg" xmlns:xlink="http://www.w3.org/1999/xlink" preserveAspectRatio="xMidYMid meet" viewBox="0 0 400 400" width="400" height="400"><defs><path d="M386.18 332.51C386.85 332.51 387.51 332.38 388.13 332.14C388.36 332.04 388.15 332.13 388.39 332.04C388.79 331.87 388.88 331.34 388.56 331.05C387.66 330.26 385.48 328.35 384.53 327.52C384.27 327.28 383.87 327.27 383.59 327.49C382.52 328.33 379.93 330.34 378.9 331.14C378.57 331.4 378.62 331.9 378.98 332.09C379.14 332.17 378.85 332.02 379.01 332.1C379.52 332.37 380.1 332.51 380.68 332.51C381.99 332.51 384.91 332.51 386.18 332.51Z" id="asanctFXN"></path><path d="M384.36 332.51C384.49 332.88 384.58 333.1 384.61 333.2C384.9 333.99 385.02 334.84 384.95 335.69C384.9 336.33 384.81 337.49 384.75 338.26C384.73 338.62 384.43 338.89 384.08 338.89C383.75 338.89 383.05 338.89 382.63 338.89C382.53 338.89 382.46 338.8 382.47 338.7C382.59 337.84 382.85 336.03 382.95 335.31C383.04 334.71 383.04 334.1 382.96 333.5C382.95 333.37 382.9 333.04 382.84 332.51L384.36 332.51Z" id="fSdxJSkjN"></path><path d="M388.96 335.9C389.43 335.9 389.89 335.82 390.34 335.66C390.51 335.6 390.38 335.64 390.56 335.58C390.83 335.48 390.89 335.12 390.66 334.94C390.01 334.43 388.42 333.18 387.72 332.64C387.52 332.48 387.24 332.47 387.03 332.62C386.24 333.17 384.35 334.48 383.59 335.01C383.37 335.16 383.4 335.5 383.65 335.62C383.77 335.67 383.57 335.58 383.69 335.63C384.06 335.81 384.46 335.9 384.88 335.9C385.83 335.9 388.02 335.9 388.96 335.9Z" id="c9IUm1uNRB"></path><path d="M387.59 335.9C387.68 336.11 387.74 336.25 387.76 336.3C387.98 336.85 388.07 337.44 388.02 338.03C387.99 338.44 387.93 339.13 387.88 339.62C387.86 339.87 387.66 340.06 387.41 340.06C387.16 340.06 386.63 340.06 386.32 340.06C386.25 340.06 386.2 340 386.21 339.93C386.3 339.37 386.48 338.23 386.56 337.77C386.62 337.35 386.63 336.92 386.57 336.5C386.55 336.42 386.52 336.22 386.48 335.9L387.59 335.9Z" id="cgWy5nq8r"></path><path d="M367.88 294.47C369.23 294.47 370.57 294.22 371.83 293.73C372.29 293.55 371.85 293.72 372.33 293.53C373.15 293.21 373.33 292.14 372.67 291.56C370.86 289.99 366.46 286.19 364.55 284.52C364 284.05 363.2 284.03 362.63 284.47C360.45 286.14 355.24 290.14 353.14 291.75C352.49 292.25 352.58 293.26 353.31 293.63C353.64 293.8 353.03 293.49 353.35 293.65C354.4 294.19 355.57 294.47 356.75 294.47C359.39 294.47 365.29 294.47 367.88 294.47Z" id="a3CBsVDXl"></path><path d="M364.19 294.47C364.46 295.19 364.62 295.64 364.69 295.82C365.28 297.43 365.52 299.14 365.38 300.85C365.28 302.12 365.11 304.4 364.99 305.93C364.93 306.65 364.34 307.2 363.62 307.2C362.96 307.2 361.54 307.2 360.7 307.2C360.49 307.2 360.34 307.02 360.37 306.81C360.61 305.1 361.13 301.52 361.34 300.09C361.51 298.88 361.52 297.64 361.36 296.42C361.33 296.16 361.24 295.51 361.11 294.47L364.19 294.47Z" id="bj2vbNYzn"></path><path d="M373.51 301.23C374.45 301.23 375.38 301.07 376.26 300.76C376.61 300.64 376.38 300.72 376.74 300.6C377.29 300.41 377.4 299.69 376.95 299.34C375.62 298.31 372.39 295.82 370.99 294.73C370.58 294.42 370.02 294.4 369.6 294.69C368.01 295.78 364.17 298.41 362.63 299.46C362.18 299.77 362.24 300.44 362.73 300.66C362.98 300.78 362.59 300.6 362.84 300.71C363.58 301.05 364.4 301.23 365.22 301.23C367.16 301.23 371.61 301.23 373.51 301.23Z" id="hfpQnpYC"></path><path d="M370.73 301.23C370.91 301.66 371.02 301.93 371.07 302.04C371.52 303.13 371.7 304.31 371.6 305.49C371.53 306.3 371.41 307.67 371.32 308.66C371.28 309.16 370.86 309.53 370.37 309.53C369.87 309.53 368.78 309.53 368.16 309.53C368.02 309.53 367.91 309.41 367.93 309.27C368.12 308.16 368.49 305.88 368.63 304.96C368.77 304.13 368.78 303.27 368.65 302.43C368.63 302.27 368.57 301.87 368.47 301.23L370.73 301.23Z" id="b1X6PFbq5o"></path><path d="M388.39 307.16C389.74 307.16 391.08 306.91 392.34 306.42C392.8 306.24 392.36 306.41 392.84 306.22C393.66 305.9 393.84 304.83 393.18 304.25C391.37 302.68 386.97 298.87 385.06 297.21C384.51 296.74 383.71 296.72 383.14 297.16C380.96 298.83 375.75 302.83 373.65 304.44C373 304.94 373.09 305.95 373.82 306.32C374.15 306.49 373.54 306.18 373.86 306.34C374.91 306.88 376.08 307.16 377.26 307.16C379.9 307.16 385.8 307.16 388.39 307.16Z" id="b4bzFrV5T"></path><path d="M384.7 307.16C384.96 307.88 385.13 308.33 385.2 308.51C385.79 310.12 386.03 311.83 385.89 313.54C385.79 314.81 385.62 317.09 385.5 318.62C385.44 319.34 384.85 319.89 384.13 319.89C383.47 319.89 382.05 319.89 381.21 319.89C381 319.89 380.85 319.71 380.87 319.5C381.12 317.79 381.64 314.2 381.85 312.78C382.02 311.57 382.03 310.33 381.87 309.11C381.84 308.85 381.75 308.2 381.62 307.16L384.7 307.16Z" id="b5VRnXsRBS"></path><path d="M394.02 313.92C394.96 313.92 395.89 313.76 396.77 313.45C397.12 313.33 396.89 313.41 397.25 313.28C397.8 313.1 397.91 312.38 397.46 312.03C396.13 311 392.9 308.51 391.5 307.42C391.09 307.11 390.53 307.09 390.11 307.38C388.52 308.47 384.67 311.1 383.14 312.15C382.69 312.46 382.75 313.13 383.24 313.35C383.49 313.47 383.1 313.29 383.35 313.4C384.09 313.74 384.9 313.92 385.72 313.92C387.67 313.92 392.11 313.92 394.02 313.92Z" id="c1PtEouk3a"></path><path d="M391.24 313.92C391.42 314.35 391.53 314.62 391.58 314.73C392.03 315.82 392.21 317 392.11 318.18C392.03 318.99 391.91 320.36 391.83 321.35C391.78 321.85 391.37 322.22 390.88 322.22C390.38 322.22 389.29 322.22 388.67 322.22C388.53 322.22 388.42 322.1 388.44 321.96C388.62 320.84 388.99 318.57 389.14 317.65C389.28 316.82 389.28 315.96 389.16 315.12C389.14 314.96 389.08 314.56 388.98 313.92L391.24 313.92Z" id="bKY32A9KN"></path><path d="M91.72 300.29C93.07 300.29 94.41 300.04 95.66 299.55C96.12 299.37 95.69 299.54 96.17 299.35C96.98 299.03 97.17 297.95 96.51 297.38C94.69 295.81 90.3 292 88.38 290.34C87.84 289.87 87.04 289.85 86.47 290.29C84.29 291.96 79.07 295.96 76.98 297.57C76.33 298.07 76.42 299.08 77.15 299.45C77.48 299.62 76.86 299.31 77.19 299.47C78.24 300.01 79.41 300.29 80.59 300.29C83.22 300.29 89.13 300.29 91.72 300.29Z" id="f3MaZkVau"></path><path d="M88.03 300.29C88.29 301.01 88.46 301.46 88.52 301.63C89.11 303.24 89.35 304.96 89.22 306.67C89.12 307.94 88.94 310.22 88.82 311.75C88.77 312.47 88.17 313.02 87.46 313.02C86.79 313.02 85.37 313.02 84.53 313.02C84.33 313.02 84.17 312.83 84.2 312.63C84.45 310.92 84.97 307.33 85.17 305.91C85.35 304.7 85.36 303.46 85.2 302.24C85.16 301.98 85.08 301.33 84.94 300.29L88.03 300.29Z" id="axpQUrfYp"></path><path d="M97.35 307.05C98.29 307.05 99.22 306.89 100.1 306.58C100.45 306.46 100.22 306.54 100.58 306.41C101.12 306.22 101.24 305.51 100.78 305.16C99.46 304.13 96.23 301.63 94.82 300.55C94.42 300.24 93.86 300.22 93.44 300.51C91.84 301.6 88 304.23 86.47 305.28C86.02 305.59 86.08 306.26 86.57 306.48C86.82 306.6 86.43 306.42 86.67 306.53C87.42 306.87 88.23 307.05 89.05 307.05C90.99 307.05 95.44 307.05 97.35 307.05Z" id="c2Jte7jyzQ"></path><path d="M94.57 307.05C94.75 307.48 94.86 307.75 94.9 307.86C95.35 308.95 95.53 310.13 95.43 311.31C95.36 312.12 95.24 313.49 95.15 314.48C95.11 314.97 94.7 315.35 94.2 315.35C93.71 315.35 92.61 315.35 92 315.35C91.86 315.35 91.75 315.23 91.77 315.09C91.95 313.97 92.32 311.7 92.47 310.78C92.61 309.94 92.61 309.09 92.49 308.25C92.46 308.09 92.41 307.69 92.31 307.05L94.57 307.05Z" id="b1p3we910"></path><path d="M106.94 320.96C108.29 320.96 109.63 320.71 110.89 320.22C111.35 320.04 110.91 320.21 111.39 320.02C112.21 319.7 112.4 318.63 111.73 318.05C109.92 316.48 105.53 312.68 103.61 311.02C103.07 310.54 102.27 310.52 101.7 310.96C99.52 312.63 94.3 316.63 92.21 318.24C91.55 318.74 91.64 319.75 92.38 320.12C92.71 320.29 92.09 319.98 92.41 320.14C93.47 320.68 94.63 320.96 95.82 320.96C98.45 320.96 104.36 320.96 106.94 320.96Z" id="a10c5lyKAt"></path><path d="M103.26 320.96C103.52 321.68 103.68 322.13 103.75 322.31C104.34 323.92 104.58 325.64 104.45 327.35C104.35 328.61 104.17 330.89 104.05 332.42C103.99 333.14 103.4 333.69 102.68 333.69C102.02 333.69 100.6 333.69 99.76 333.69C99.56 333.69 99.4 333.51 99.43 333.3C99.68 331.59 100.2 328.01 100.4 326.59C100.58 325.37 100.59 324.13 100.43 322.91C100.39 322.65 100.31 322 100.17 320.96L103.26 320.96Z" id="c25lJTgLCi"></path><path d="M112.58 327.72C113.51 327.72 114.44 327.56 115.33 327.25C115.68 327.13 115.44 327.21 115.81 327.09C116.35 326.9 116.47 326.18 116.01 325.83C114.68 324.8 111.45 322.31 110.05 321.22C109.65 320.91 109.09 320.89 108.67 321.18C107.07 322.27 103.23 324.9 101.69 325.95C101.25 326.26 101.31 326.93 101.8 327.15C102.04 327.27 101.66 327.09 101.9 327.2C102.65 327.54 103.46 327.72 104.28 327.72C106.22 327.72 110.67 327.72 112.58 327.72Z" id="h443YLuOuV"></path><path d="M109.8 327.72C109.97 328.15 110.09 328.42 110.13 328.53C110.58 329.62 110.76 330.8 110.66 331.98C110.59 332.79 110.47 334.16 110.38 335.15C110.34 335.65 109.93 336.02 109.43 336.02C108.94 336.02 107.84 336.02 107.22 336.02C107.08 336.02 106.98 335.9 107 335.76C107.18 334.65 107.55 332.37 107.7 331.45C107.83 330.62 107.84 329.76 107.72 328.93C107.69 328.76 107.63 328.36 107.54 327.72L109.8 327.72Z" id="b3Fhqqq1IK"></path><path d="M46.22 364.33C47.57 364.33 48.91 364.07 50.17 363.58C50.63 363.4 50.19 363.57 50.67 363.38C51.49 363.06 51.67 361.99 51.01 361.41C49.2 359.85 44.8 356.04 42.89 354.38C42.34 353.91 41.54 353.88 40.97 354.32C38.79 355.99 33.58 359.99 31.48 361.6C30.83 362.1 30.92 363.11 31.65 363.49C31.98 363.66 31.37 363.34 31.69 363.51C32.74 364.05 33.91 364.33 35.09 364.33C37.73 364.33 43.63 364.33 46.22 364.33Z" id="anNEAjSSs"></path><path d="M42.53 364.33C42.79 365.04 42.96 365.49 43.03 365.67C43.62 367.28 43.86 369 43.72 370.71C43.62 371.98 43.45 374.25 43.33 375.79C43.27 376.5 42.68 377.05 41.96 377.05C41.3 377.05 39.88 377.05 39.04 377.05C38.83 377.05 38.68 376.87 38.71 376.67C38.95 374.96 39.47 371.37 39.68 369.95C39.85 368.73 39.86 367.49 39.7 366.27C39.67 366.01 39.58 365.37 39.45 364.33L42.53 364.33Z" id="h78D0r33a"></path><path d="M51.85 371.08C52.79 371.08 53.72 370.93 54.6 370.62C54.95 370.5 54.72 370.58 55.08 370.45C55.63 370.26 55.74 369.54 55.29 369.19C53.96 368.16 50.73 365.67 49.33 364.59C48.92 364.27 48.36 364.26 47.94 364.55C46.35 365.64 42.5 368.26 40.97 369.32C40.52 369.62 40.58 370.29 41.07 370.52C41.32 370.63 40.93 370.45 41.18 370.57C41.92 370.91 42.73 371.08 43.56 371.08C45.5 371.08 49.94 371.08 51.85 371.08Z" id="a13H8BC4YJ"></path><path d="M49.07 371.08C49.25 371.52 49.36 371.79 49.41 371.89C49.86 372.98 50.04 374.17 49.94 375.34C49.86 376.15 49.75 377.52 49.66 378.52C49.62 379.01 49.2 379.39 48.71 379.39C48.21 379.39 47.12 379.39 46.5 379.39C46.36 379.39 46.25 379.26 46.27 379.12C46.45 378.01 46.82 375.73 46.97 374.82C47.11 373.98 47.12 373.13 46.99 372.29C46.97 372.13 46.91 371.73 46.81 371.08L49.07 371.08Z" id="b1wyDGXLXN"></path><path d="M109.06 375.93C110.41 375.93 111.74 375.68 113 375.19C113.46 375.01 113.02 375.18 113.51 374.99C114.32 374.67 114.51 373.59 113.84 373.02C112.03 371.45 107.64 367.64 105.72 365.98C105.18 365.51 104.38 365.49 103.81 365.93C101.63 367.6 96.41 371.6 94.32 373.2C93.67 373.71 93.76 374.72 94.49 375.09C94.82 375.26 94.2 374.95 94.53 375.11C95.58 375.65 96.74 375.93 97.93 375.93C100.56 375.93 106.47 375.93 109.06 375.93Z" id="abP9yHzLo"></path><path d="M105.37 375.93C105.63 376.65 105.8 377.09 105.86 377.27C106.45 378.88 106.69 380.6 106.56 382.31C106.46 383.58 106.28 385.86 106.16 387.39C106.11 388.1 105.51 388.66 104.8 388.66C104.13 388.66 102.71 388.66 101.87 388.66C101.67 388.66 101.51 388.47 101.54 388.27C101.79 386.56 102.31 382.97 102.51 381.55C102.69 380.33 102.7 379.1 102.54 377.88C102.5 377.62 102.42 376.97 102.28 375.93L105.37 375.93Z" id="bVucSMPPP"></path><path d="M114.69 382.69C115.63 382.69 116.55 382.53 117.44 382.22C117.79 382.1 117.56 382.18 117.92 382.05C118.46 381.86 118.58 381.15 118.12 380.79C116.8 379.77 113.57 377.27 112.16 376.19C111.76 375.88 111.2 375.86 110.78 376.15C109.18 377.24 105.34 379.87 103.8 380.92C103.36 381.22 103.42 381.9 103.91 382.12C104.16 382.23 103.77 382.06 104.01 382.17C104.76 382.51 105.57 382.69 106.39 382.69C108.33 382.69 112.78 382.69 114.69 382.69Z" id="a48VTjBC8Q"></path><path d="M111.91 382.69C112.09 383.12 112.2 383.39 112.24 383.5C112.69 384.59 112.87 385.77 112.77 386.95C112.7 387.76 112.58 389.13 112.49 390.12C112.45 390.61 112.04 390.99 111.54 390.99C111.05 390.99 109.95 390.99 109.34 390.99C109.19 390.99 109.09 390.87 109.11 390.73C109.29 389.61 109.66 387.33 109.81 386.42C109.94 385.58 109.95 384.73 109.83 383.89C109.8 383.73 109.74 383.33 109.65 382.69L111.91 382.69Z" id="aqG9NcaUO"></path><path d="M214.03 374.34C215.24 374.34 216.44 374.1 217.56 373.65C217.98 373.49 217.59 373.64 218.03 373.47C218.77 373.17 218.94 372.2 218.34 371.67C216.71 370.22 212.75 366.69 211.03 365.16C210.56 364.73 209.84 364.71 209.34 365.11C207.38 366.65 202.69 370.35 200.81 371.83C200.22 372.3 200.31 373.21 200.97 373.56C201.26 373.72 200.73 373.43 201.02 373.59C201.96 374.08 203 374.34 204.06 374.34C206.42 374.34 211.71 374.34 214.03 374.34Z" id="d60ECnMyXC"></path><path d="M210.73 374.34C210.97 375.03 211.13 375.46 211.19 375.63C211.71 377.08 211.92 378.62 211.8 380.15C211.71 381.34 211.54 383.51 211.44 384.93C211.39 385.57 210.86 386.06 210.21 386.06C209.62 386.06 208.35 386.06 207.6 386.06C207.41 386.06 207.27 385.9 207.3 385.72C207.52 384.14 207.99 380.79 208.18 379.47C208.33 378.38 208.34 377.27 208.2 376.18C208.16 375.93 208.09 375.32 207.96 374.34L210.73 374.34Z" id="dzEQzjcQA"></path><path d="M219.05 380.56C219.91 380.56 220.76 380.41 221.58 380.12C221.88 380.01 221.63 380.1 221.95 379.99C222.45 379.81 222.56 379.14 222.14 378.81C220.96 377.86 218.08 375.58 216.83 374.58C216.46 374.29 215.95 374.28 215.57 374.55C214.14 375.55 210.72 377.96 209.34 378.92C208.93 379.21 208.99 379.84 209.44 380.05C209.66 380.16 209.28 379.98 209.49 380.08C210.17 380.4 210.92 380.56 211.68 380.56C213.41 380.56 217.34 380.56 219.05 380.56Z" id="aDT4DQudp"></path><path d="M216.59 380.56C216.75 380.96 216.85 381.21 216.89 381.31C217.29 382.31 217.45 383.41 217.36 384.49C217.3 385.23 217.19 386.5 217.11 387.41C217.08 387.87 216.7 388.22 216.24 388.22C215.8 388.22 214.84 388.22 214.29 388.22C214.16 388.22 214.06 388.1 214.08 387.97C214.24 386.95 214.57 384.85 214.71 384C214.83 383.23 214.83 382.45 214.72 381.67C214.7 381.53 214.65 381.16 214.56 380.56L216.59 380.56Z" id="f4xZHHaNnU"></path><path d="M370.94 381.65C372.06 381.65 373.17 381.45 374.22 381.05C374.6 380.91 374.22 381.05 374.62 380.9C375.29 380.65 375.44 379.77 374.89 379.31C373.39 378.06 369.78 375.05 368.19 373.72C367.73 373.34 367.07 373.32 366.59 373.68C364.78 375.01 360.49 378.18 358.76 379.46C358.22 379.86 358.29 380.69 358.89 380.98C359.16 381.12 358.64 380.86 358.9 380.99C359.78 381.42 360.75 381.65 361.73 381.65C363.91 381.65 368.8 381.65 370.94 381.65Z" id="bmPURqyr0"></path><path d="M367.89 381.65C368.09 382.18 368.22 382.52 368.27 382.65C368.78 383.98 368.98 385.4 368.87 386.82C368.79 387.81 368.65 389.53 368.55 390.75C368.5 391.34 368.01 391.8 367.41 391.8C366.87 391.8 365.69 391.8 365 391.8C364.83 391.8 364.7 391.64 364.72 391.48C364.93 390.11 365.35 387.31 365.52 386.19C365.67 385.18 365.67 384.15 365.54 383.15C365.51 382.95 365.44 382.45 365.33 381.65L367.89 381.65Z" id="cuKhszJzu"></path><path d="M375.65 387.04C376.39 387.04 377.14 386.91 377.84 386.68C378.14 386.58 378.01 386.62 378.31 386.52C378.74 386.37 378.83 385.81 378.47 385.54C377.37 384.72 374.66 382.71 373.5 381.84C373.17 381.6 372.72 381.59 372.38 381.81C371.06 382.69 367.85 384.8 366.57 385.64C366.22 385.87 366.26 386.4 366.65 386.57C366.86 386.66 366.59 386.54 366.8 386.64C367.39 386.9 368.04 387.04 368.7 387.04C370.31 387.04 374.06 387.04 375.65 387.04Z" id="a4ldgz8cd2"></path><path d="M373.3 387.04C373.45 387.38 373.55 387.6 373.58 387.69C373.95 388.55 374.1 389.5 374.02 390.43C373.96 391.08 373.86 392.17 373.79 392.96C373.75 393.36 373.42 393.66 373.03 393.66C372.61 393.66 371.68 393.66 371.16 393.66C371.05 393.66 370.97 393.56 370.99 393.45C371.14 392.56 371.44 390.74 371.56 390.01C371.68 389.35 371.68 388.67 371.58 388C371.56 387.87 371.51 387.55 371.43 387.04L373.3 387.04Z" id="dV4y7DcwD"></path><path d="M15.18 283.61C16.53 283.61 17.86 283.36 19.12 282.87C19.58 282.69 19.14 282.86 19.63 282.67C20.44 282.35 20.63 281.27 19.97 280.7C18.15 279.13 13.76 275.32 11.84 273.66C11.3 273.19 10.5 273.17 9.93 273.61C7.75 275.28 2.53 279.28 0.44 280.89C-0.21 281.39 -0.12 282.4 0.61 282.77C0.94 282.94 0.32 282.63 0.65 282.79C1.7 283.33 2.87 283.61 4.05 283.61C6.68 283.61 12.59 283.61 15.18 283.61Z" id="f3dpYraDw"></path><path d="M11.49 283.61C11.75 284.33 11.92 284.77 11.98 284.95C12.57 286.56 12.81 288.28 12.68 289.99C12.58 291.26 12.4 293.54 12.28 295.07C12.23 295.79 11.63 296.34 10.92 296.34C10.25 296.34 8.83 296.34 7.99 296.34C7.79 296.34 7.63 296.15 7.66 295.95C7.91 294.24 8.43 290.65 8.63 289.23C8.81 288.01 8.82 286.78 8.66 285.56C8.62 285.3 8.54 284.65 8.4 283.61L11.49 283.61Z" id="ad4Aw87us"></path><path d="M20.81 290.37C21.75 290.37 22.67 290.21 23.56 289.9C23.91 289.78 23.68 289.86 24.04 289.73C24.58 289.54 24.7 288.83 24.24 288.48C22.92 287.45 19.69 284.95 18.28 283.87C17.88 283.56 17.32 283.54 16.9 283.83C15.3 284.92 11.46 287.55 9.93 288.6C9.48 288.9 9.54 289.58 10.03 289.8C10.28 289.92 9.89 289.74 10.13 289.85C10.88 290.19 11.69 290.37 12.51 290.37C14.45 290.37 18.9 290.37 20.81 290.37Z" id="g1kiWoQnD"></path><path d="M18.03 290.37C18.21 290.8 18.32 291.07 18.36 291.18C18.81 292.27 18.99 293.45 18.89 294.63C18.82 295.44 18.7 296.81 18.61 297.8C18.57 298.29 18.16 298.67 17.66 298.67C17.17 298.67 16.07 298.67 15.46 298.67C15.31 298.67 15.21 298.55 15.23 298.41C15.41 297.29 15.78 295.02 15.93 294.1C16.07 293.26 16.07 292.41 15.95 291.57C15.92 291.41 15.86 291.01 15.77 290.37L18.03 290.37Z" id="ahEVnm99H"></path><path d="M373.49 316.26C374.84 316.26 376.18 316.01 377.43 315.52C377.89 315.34 377.46 315.51 377.94 315.32C378.76 315 378.94 313.93 378.28 313.35C376.46 311.78 372.07 307.98 370.15 306.32C369.61 305.85 368.81 305.82 368.24 306.26C366.06 307.93 360.84 311.93 358.75 313.54C358.1 314.04 358.19 315.05 358.92 315.43C359.25 315.59 358.63 315.28 358.96 315.44C360.01 315.98 361.18 316.26 362.36 316.26C364.99 316.26 370.9 316.26 373.49 316.26Z" id="bGKJiQJdW"></path><path d="M369.8 316.26C370.06 316.98 370.23 317.43 370.29 317.61C370.88 319.22 371.12 320.94 370.99 322.65C370.89 323.91 370.71 326.19 370.59 327.72C370.54 328.44 369.94 328.99 369.23 328.99C368.56 328.99 367.14 328.99 366.31 328.99C366.1 328.99 365.94 328.81 365.97 328.6C366.22 326.89 366.74 323.31 366.94 321.89C367.12 320.67 367.13 319.43 366.97 318.21C366.93 317.95 366.85 317.3 366.71 316.26L369.8 316.26Z" id="d1aEGVsQzC"></path><path d="M379.12 323.02C380.06 323.02 380.99 322.86 381.87 322.55C382.22 322.43 381.99 322.51 382.35 322.39C382.89 322.2 383.01 321.48 382.55 321.13C381.23 320.1 378 317.61 376.59 316.52C376.19 316.21 375.63 316.19 375.21 316.48C373.61 317.57 369.77 320.2 368.24 321.25C367.79 321.56 367.85 322.23 368.34 322.46C368.59 322.57 368.2 322.39 368.44 322.5C369.19 322.84 370 323.02 370.82 323.02C372.76 323.02 377.21 323.02 379.12 323.02Z" id="c2KJJXb0H"></path><path d="M376.34 323.02C376.52 323.45 376.63 323.72 376.67 323.83C377.12 324.92 377.31 326.1 377.2 327.28C377.13 328.09 377.01 329.46 376.93 330.45C376.88 330.95 376.47 331.33 375.97 331.33C375.48 331.33 374.38 331.33 373.77 331.33C373.63 331.33 373.52 331.2 373.54 331.06C373.72 329.95 374.09 327.67 374.24 326.75C374.38 325.92 374.38 325.06 374.26 324.23C374.23 324.07 374.18 323.66 374.08 323.02L376.34 323.02Z" id="arVVXTYd7"></path><path d="M204.92 385.33C205.51 385.33 206.11 385.22 206.66 384.99C206.86 384.91 206.68 384.98 206.89 384.89C207.26 384.74 207.34 384.26 207.05 384C206.24 383.27 204.28 381.5 203.43 380.73C203.2 380.52 202.84 380.51 202.6 380.7C201.63 381.48 199.31 383.34 198.38 384.08C198.09 384.31 198.13 384.77 198.46 384.94C198.6 385.02 198.34 384.88 198.49 384.96C198.95 385.2 199.46 385.33 199.99 385.33C201.15 385.33 203.77 385.33 204.92 385.33Z" id="b5WDQ005Jm"></path><path d="M203.28 385.33C203.41 385.68 203.48 385.91 203.52 385.99C203.77 386.71 203.87 387.47 203.81 388.23C203.77 388.83 203.69 389.94 203.63 390.65C203.61 390.97 203.35 391.21 203.03 391.21C202.74 391.21 202.11 391.21 201.73 391.21C201.64 391.21 201.57 391.13 201.59 391.04C201.7 390.25 201.93 388.56 202.02 387.9C202.1 387.35 202.1 386.81 202.03 386.27C202.02 386.14 201.98 385.83 201.91 385.33L203.28 385.33Z" id="btAFkxPEX"></path><path d="M207.38 388.45C207.82 388.45 208.25 388.38 208.65 388.23C208.8 388.18 208.66 388.23 208.82 388.17C209.08 388.08 209.13 387.74 208.92 387.57C208.33 387.1 206.92 385.96 206.3 385.46C206.12 385.31 205.86 385.3 205.67 385.44C204.96 385.94 203.28 387.14 202.6 387.63C202.4 387.78 202.42 388.09 202.65 388.2C202.76 388.25 202.56 388.16 202.66 388.21C203.01 388.37 203.38 388.45 203.76 388.45C204.61 388.45 206.54 388.45 207.38 388.45Z" id="d3sWwjK8a6"></path><path d="M206.18 388.45C206.26 388.65 206.31 388.77 206.33 388.82C206.53 389.33 206.61 389.88 206.56 390.42C206.53 390.8 206.48 391.43 206.44 391.89C206.42 392.12 206.23 392.29 206 392.29C205.79 392.29 205.32 392.29 205.04 392.29C204.98 392.29 204.93 392.23 204.94 392.17C205.02 391.65 205.18 390.6 205.25 390.18C205.31 389.79 205.31 389.4 205.26 389.01C205.25 388.94 205.22 388.75 205.18 388.45L206.18 388.45Z" id="d2DtqsW2KK"></path><path d="M26.42 299.66C27.09 299.66 27.75 299.53 28.37 299.29C28.6 299.19 28.39 299.28 28.63 299.18C29.03 299.02 29.12 298.49 28.8 298.2C27.9 297.41 25.72 295.5 24.77 294.67C24.51 294.43 24.11 294.42 23.83 294.64C22.76 295.48 20.17 297.49 19.14 298.29C18.81 298.55 18.86 299.05 19.22 299.24C19.39 299.32 19.09 299.17 19.25 299.25C19.76 299.52 20.34 299.66 20.92 299.66C22.23 299.66 25.15 299.66 26.42 299.66Z" id="dt44kgrMv"></path><path d="M24.6 299.66C24.73 300.03 24.82 300.25 24.85 300.35C25.14 301.14 25.26 301.99 25.19 302.84C25.14 303.48 25.05 304.64 24.99 305.41C24.97 305.77 24.67 306.04 24.32 306.04C23.99 306.04 23.29 306.04 22.88 306.04C22.77 306.04 22.7 305.95 22.71 305.85C22.83 304.99 23.09 303.18 23.19 302.46C23.28 301.86 23.28 301.25 23.2 300.65C23.19 300.52 23.14 300.19 23.08 299.66L24.6 299.66Z" id="a8fEiofq"></path><path d="M29.2 303.05C29.67 303.05 30.13 302.97 30.58 302.81C30.75 302.75 30.62 302.79 30.8 302.73C31.07 302.63 31.13 302.27 30.9 302.09C30.25 301.58 28.66 300.33 27.96 299.79C27.76 299.63 27.48 299.62 27.27 299.77C26.48 300.32 24.59 301.63 23.83 302.16C23.61 302.31 23.64 302.65 23.89 302.77C24.01 302.82 23.81 302.73 23.93 302.78C24.3 302.96 24.71 303.05 25.12 303.05C26.08 303.05 28.26 303.05 29.2 303.05Z" id="awsUQoiW"></path><path d="M27.83 303.05C27.92 303.26 27.98 303.4 28 303.45C28.22 304 28.31 304.59 28.26 305.18C28.23 305.59 28.17 306.27 28.12 306.77C28.1 307.02 27.9 307.21 27.65 307.21C27.4 307.21 26.87 307.21 26.57 307.21C26.49 307.21 26.44 307.15 26.45 307.08C26.54 306.52 26.72 305.38 26.8 304.92C26.86 304.5 26.87 304.07 26.81 303.65C26.79 303.57 26.77 303.37 26.72 303.05L27.83 303.05Z" id="c5pEXT964h"></path><path d="M18.52 303.94C19.18 303.94 19.85 303.81 20.47 303.57C20.69 303.48 20.48 303.56 20.72 303.47C21.13 303.3 21.22 302.77 20.89 302.48C19.99 301.7 17.82 299.78 16.87 298.95C16.6 298.71 16.21 298.7 15.93 298.92C14.85 299.76 12.27 301.77 11.23 302.57C10.91 302.83 10.95 303.33 11.32 303.52C11.48 303.6 11.18 303.45 11.34 303.53C11.86 303.8 12.43 303.94 13.02 303.94C14.32 303.94 17.24 303.94 18.52 303.94Z" id="c3iBBJdxzN"></path><path d="M16.69 303.94C16.83 304.31 16.91 304.54 16.94 304.63C17.23 305.42 17.35 306.27 17.28 307.12C17.24 307.76 17.15 308.92 17.09 309.69C17.06 310.05 16.77 310.32 16.41 310.32C16.08 310.32 15.38 310.32 14.97 310.32C14.87 310.32 14.79 310.23 14.8 310.13C14.93 309.27 15.18 307.46 15.29 306.74C15.37 306.14 15.38 305.53 15.3 304.93C15.28 304.8 15.24 304.47 15.17 303.94L16.69 303.94Z" id="a4qFg2GFgM"></path><path d="M21.29 307.33C21.76 307.33 22.23 307.25 22.67 307.09C22.84 307.03 22.71 307.07 22.89 307.01C23.16 306.91 23.22 306.55 23 306.37C22.34 305.86 20.75 304.61 20.06 304.07C19.86 303.91 19.58 303.91 19.37 304.05C18.58 304.6 16.69 305.91 15.93 306.44C15.7 306.59 15.73 306.93 15.98 307.05C16.1 307.1 15.9 307.01 16.02 307.06C16.39 307.24 16.8 307.33 17.21 307.33C18.17 307.33 20.35 307.33 21.29 307.33Z" id="h45qPFBWI1"></path><path d="M19.93 307.33C20.02 307.54 20.07 307.68 20.09 307.73C20.32 308.28 20.41 308.87 20.35 309.46C20.32 309.87 20.26 310.56 20.22 311.05C20.2 311.3 19.99 311.49 19.74 311.49C19.5 311.49 18.96 311.49 18.66 311.49C18.59 311.49 18.53 311.43 18.54 311.36C18.63 310.8 18.82 309.66 18.89 309.2C18.96 308.78 18.96 308.35 18.9 307.93C18.89 307.85 18.86 307.65 18.81 307.33L19.93 307.33Z" id="a6aA5Uic2r"></path><path d="M284.41 386.82C285.07 386.82 285.73 386.7 286.35 386.45C286.58 386.36 286.37 386.44 286.61 386.35C287.01 386.19 287.11 385.65 286.78 385.37C285.88 384.58 283.7 382.66 282.76 381.83C282.49 381.6 282.09 381.59 281.82 381.8C280.74 382.64 278.15 384.65 277.12 385.46C276.79 385.71 276.84 386.21 277.2 386.4C277.37 386.48 277.07 386.33 277.23 386.41C277.75 386.68 278.32 386.82 278.91 386.82C280.21 386.82 283.13 386.82 284.41 386.82Z" id="fgDZzvUY"></path><path d="M282.58 386.82C282.72 387.19 282.8 387.42 282.83 387.51C283.12 388.31 283.24 389.16 283.17 390C283.12 390.64 283.03 391.81 282.98 392.58C282.95 392.93 282.65 393.2 282.3 393.2C281.97 393.2 281.27 393.2 280.86 393.2C280.75 393.2 280.68 393.11 280.69 393.01C280.81 392.15 281.07 390.34 281.17 389.63C281.26 389.03 281.26 388.41 281.19 387.81C281.17 387.68 281.13 387.35 281.06 386.82L282.58 386.82Z" id="cIkvbcyrq"></path><path d="M287.18 390.21C287.65 390.21 288.12 390.13 288.56 389.97C288.73 389.91 288.6 389.96 288.78 389.89C289.05 389.8 289.11 389.44 288.88 389.26C288.23 388.74 286.64 387.5 285.94 386.95C285.74 386.8 285.46 386.79 285.25 386.93C284.47 387.48 282.57 388.79 281.82 389.32C281.59 389.47 281.62 389.81 281.87 389.93C281.99 389.99 281.79 389.89 281.91 389.95C282.28 390.12 282.69 390.21 283.1 390.21C284.06 390.21 286.24 390.21 287.18 390.21Z" id="a3bpARAwl2"></path><path d="M285.82 390.21C285.9 390.43 285.96 390.56 285.98 390.61C286.2 391.16 286.29 391.76 286.24 392.35C286.21 392.75 286.15 393.44 286.11 393.94C286.08 394.18 285.88 394.37 285.63 394.37C285.39 394.37 284.85 394.37 284.55 394.37C284.48 394.37 284.42 394.31 284.43 394.24C284.52 393.68 284.7 392.54 284.78 392.08C284.85 391.66 284.85 391.23 284.79 390.81C284.78 390.73 284.75 390.53 284.7 390.21L285.82 390.21Z" id="guR12TwcQ"></path><path d="M278.57 375.99C279.24 375.99 279.9 375.86 280.52 375.62C280.75 375.53 280.53 375.61 280.77 375.52C281.18 375.35 281.27 374.82 280.94 374.53C280.05 373.74 277.87 371.83 276.92 371C276.66 370.76 276.26 370.75 275.98 370.97C274.9 371.81 272.32 373.82 271.28 374.62C270.96 374.88 271.01 375.38 271.37 375.57C271.53 375.65 271.23 375.5 271.39 375.58C271.91 375.85 272.49 375.99 273.07 375.99C274.37 375.99 277.29 375.99 278.57 375.99Z" id="cjScgwYWy"></path><path d="M276.75 375.99C276.88 376.36 276.96 376.59 277 376.68C277.29 377.47 277.4 378.32 277.34 379.17C277.29 379.81 277.2 380.97 277.14 381.74C277.11 382.1 276.82 382.37 276.47 382.37C276.14 382.37 275.44 382.37 275.02 382.37C274.92 382.37 274.84 382.28 274.86 382.18C274.98 381.32 275.24 379.51 275.34 378.79C275.43 378.19 275.43 377.58 275.35 376.98C275.33 376.85 275.29 376.52 275.22 375.99L276.75 375.99Z" id="ad1z7PVS9"></path><path d="M281.35 379.38C281.82 379.38 282.28 379.3 282.72 379.14C282.89 379.08 282.77 379.12 282.94 379.06C283.22 378.96 283.28 378.6 283.05 378.42C282.39 377.91 280.8 376.66 280.11 376.12C279.91 375.96 279.63 375.96 279.42 376.1C278.63 376.65 276.74 377.96 275.98 378.49C275.76 378.64 275.79 378.98 276.03 379.1C276.15 379.15 275.95 379.06 276.07 379.11C276.45 379.29 276.85 379.38 277.26 379.38C278.22 379.38 280.4 379.38 281.35 379.38Z" id="a4J6Ke3ZHJ"></path><path d="M279.98 379.38C280.07 379.59 280.12 379.73 280.15 379.78C280.37 380.33 280.46 380.92 280.41 381.51C280.37 381.92 280.31 382.61 280.27 383.1C280.25 383.35 280.04 383.54 279.8 383.54C279.55 383.54 279.02 383.54 278.71 383.54C278.64 383.54 278.59 383.48 278.6 383.41C278.69 382.85 278.87 381.71 278.94 381.25C279.01 380.83 279.01 380.4 278.95 379.98C278.94 379.9 278.91 379.7 278.87 379.38L279.98 379.38Z" id="a6z0mOQSQ"></path><path d="M179.62 365.51C180.28 365.51 180.94 365.38 181.57 365.14C181.79 365.05 181.58 365.13 181.82 365.04C182.22 364.88 182.32 364.34 181.99 364.05C181.09 363.27 178.91 361.35 177.97 360.52C177.7 360.29 177.3 360.27 177.03 360.49C175.95 361.33 173.36 363.34 172.33 364.15C172 364.4 172.05 364.9 172.41 365.09C172.58 365.17 172.28 365.02 172.44 365.1C172.96 365.37 173.53 365.51 174.12 365.51C175.42 365.51 178.34 365.51 179.62 365.51Z" id="cdoSTbHJE"></path><path d="M177.79 365.51C177.93 365.88 178.01 366.11 178.04 366.2C178.33 367 178.45 367.85 178.38 368.69C178.33 369.33 178.24 370.49 178.19 371.26C178.16 371.62 177.86 371.89 177.51 371.89C177.18 371.89 176.48 371.89 176.07 371.89C175.97 371.89 175.89 371.8 175.9 371.7C176.02 370.84 176.28 369.03 176.38 368.32C176.47 367.71 176.47 367.1 176.4 366.5C176.38 366.37 176.34 366.04 176.27 365.51L177.79 365.51Z" id="bLooQLrjz"></path><path d="M182.39 368.9C182.86 368.9 183.33 368.82 183.77 368.66C183.94 368.6 183.81 368.65 183.99 368.58C184.26 368.48 184.32 368.12 184.09 367.94C183.44 367.43 181.85 366.18 181.15 365.64C180.95 365.48 180.67 365.48 180.46 365.62C179.68 366.17 177.78 367.48 177.03 368.01C176.8 368.16 176.83 368.5 177.08 368.62C177.2 368.67 177 368.58 177.12 368.63C177.49 368.81 177.9 368.9 178.31 368.9C179.27 368.9 181.45 368.9 182.39 368.9Z" id="ermfSrOrI"></path><path d="M181.03 368.9C181.11 369.11 181.17 369.25 181.19 369.3C181.41 369.85 181.5 370.44 181.45 371.03C181.42 371.44 181.36 372.13 181.32 372.62C181.29 372.87 181.09 373.06 180.84 373.06C180.6 373.06 180.06 373.06 179.76 373.06C179.69 373.06 179.63 373 179.64 372.93C179.73 372.37 179.92 371.23 179.99 370.77C180.06 370.35 180.06 369.92 180 369.5C179.99 369.42 179.96 369.22 179.91 368.9L181.03 368.9Z" id="clXfd7Wov"></path><path d="M172.53 374.1C173.2 374.1 173.86 373.97 174.48 373.72C174.71 373.63 174.49 373.72 174.73 373.62C175.14 373.46 175.23 372.93 174.9 372.64C174.01 371.85 171.83 369.94 170.88 369.11C170.61 368.87 170.22 368.86 169.94 369.08C168.86 369.92 166.28 371.93 165.24 372.73C164.92 372.98 164.96 373.49 165.33 373.67C165.49 373.76 165.19 373.6 165.35 373.69C165.87 373.96 166.45 374.1 167.03 374.1C168.33 374.1 171.25 374.1 172.53 374.1Z" id="b35GNrQcsS"></path><path d="M170.71 374.1C170.84 374.46 170.92 374.69 170.96 374.78C171.25 375.58 171.36 376.43 171.3 377.28C171.25 377.92 171.16 379.08 171.1 379.85C171.07 380.2 170.78 380.48 170.42 380.48C170.1 380.48 169.39 380.48 168.98 380.48C168.88 380.48 168.8 380.39 168.82 380.29C168.94 379.43 169.2 377.62 169.3 376.9C169.38 376.3 169.39 375.69 169.31 375.09C169.29 374.95 169.25 374.62 169.18 374.1L170.71 374.1Z" id="gg9DBSmGt"></path><path d="M175.3 377.48C175.77 377.48 176.24 377.4 176.68 377.25C176.85 377.19 176.73 377.23 176.9 377.17C177.18 377.07 177.24 376.71 177.01 376.53C176.35 376.02 174.76 374.77 174.07 374.23C173.87 374.07 173.59 374.06 173.38 374.21C172.59 374.76 170.7 376.07 169.94 376.59C169.72 376.75 169.75 377.09 169.99 377.2C170.11 377.26 169.91 377.17 170.03 377.22C170.4 377.39 170.81 377.48 171.22 377.48C172.18 377.48 174.36 377.48 175.3 377.48Z" id="a2Rqhoty47"></path><path d="M173.94 377.48C174.03 377.7 174.08 377.83 174.1 377.89C174.33 378.44 174.42 379.03 174.37 379.62C174.33 380.03 174.27 380.71 174.23 381.21C174.21 381.46 174 381.65 173.75 381.65C173.51 381.65 172.97 381.65 172.67 381.65C172.6 381.65 172.55 381.58 172.56 381.51C172.65 380.96 172.83 379.81 172.9 379.36C172.97 378.94 172.97 378.51 172.91 378.09C172.9 378.01 172.87 377.81 172.82 377.48L173.94 377.48Z" id="btpjqQ0u4"></path><path d="M98.88 385.65C99.55 385.65 100.21 385.52 100.83 385.28C101.06 385.19 100.85 385.27 101.09 385.18C101.49 385.02 101.58 384.48 101.26 384.19C100.36 383.41 98.18 381.49 97.23 380.66C96.97 380.43 96.57 380.41 96.29 380.63C95.22 381.47 92.63 383.48 91.6 384.29C91.27 384.54 91.32 385.04 91.68 385.23C91.84 385.31 91.54 385.16 91.71 385.24C92.22 385.51 92.8 385.65 93.38 385.65C94.69 385.65 97.61 385.65 98.88 385.65Z" id="bDRbCSv1l"></path><path d="M97.06 385.65C97.19 386.02 97.28 386.25 97.31 386.34C97.6 387.14 97.72 387.99 97.65 388.83C97.6 389.47 97.51 390.63 97.45 391.41C97.43 391.76 97.13 392.03 96.78 392.03C96.45 392.03 95.75 392.03 95.33 392.03C95.23 392.03 95.15 391.94 95.17 391.84C95.29 390.98 95.55 389.17 95.65 388.46C95.74 387.85 95.74 387.24 95.66 386.64C95.65 386.51 95.6 386.18 95.54 385.65L97.06 385.65Z" id="aqRguWeGd"></path><path d="M101.66 389.04C102.13 389.04 102.59 388.96 103.04 388.8C103.21 388.74 103.08 388.79 103.26 388.72C103.53 388.63 103.59 388.26 103.36 388.09C102.71 387.57 101.12 386.33 100.42 385.78C100.22 385.63 99.94 385.62 99.73 385.76C98.94 386.31 97.05 387.62 96.29 388.15C96.07 388.3 96.1 388.64 96.35 388.76C96.47 388.81 96.27 388.72 96.39 388.78C96.76 388.95 97.16 389.04 97.58 389.04C98.53 389.04 100.72 389.04 101.66 389.04Z" id="gQDUSxwAB"></path><path d="M100.29 389.04C100.38 389.25 100.44 389.39 100.46 389.44C100.68 389.99 100.77 390.58 100.72 391.17C100.69 391.58 100.63 392.27 100.58 392.77C100.56 393.01 100.36 393.2 100.11 393.2C99.86 393.2 99.33 393.2 99.02 393.2C98.95 393.2 98.9 393.14 98.91 393.07C99 392.51 99.18 391.37 99.26 390.91C99.32 390.49 99.33 390.06 99.27 389.64C99.25 389.56 99.22 389.36 99.18 389.04L100.29 389.04Z" id="b2ZxUFsjnV"></path><path d="M271.49 385.65C272.15 385.65 272.81 385.52 273.43 385.28C273.66 385.19 273.45 385.27 273.69 385.18C274.09 385.02 274.19 384.48 273.86 384.19C272.96 383.41 270.78 381.49 269.84 380.66C269.57 380.43 269.17 380.41 268.89 380.63C267.82 381.47 265.23 383.48 264.2 384.29C263.87 384.54 263.92 385.04 264.28 385.23C264.45 385.31 264.15 385.16 264.31 385.24C264.83 385.51 265.4 385.65 265.99 385.65C267.29 385.65 270.21 385.65 271.49 385.65Z" id="b1JyKd5Say"></path><path d="M269.66 385.65C269.8 386.02 269.88 386.25 269.91 386.34C270.2 387.14 270.32 387.99 270.25 388.83C270.2 389.47 270.11 390.63 270.05 391.41C270.03 391.76 269.73 392.03 269.38 392.03C269.05 392.03 268.35 392.03 267.94 392.03C267.83 392.03 267.76 391.94 267.77 391.84C267.89 390.98 268.15 389.17 268.25 388.46C268.34 387.85 268.34 387.24 268.27 386.64C268.25 386.51 268.21 386.18 268.14 385.65L269.66 385.65Z" id="c33LzCA8en"></path><path d="M274.26 389.04C274.73 389.04 275.2 388.96 275.64 388.8C275.81 388.74 275.68 388.79 275.86 388.72C276.13 388.63 276.19 388.26 275.96 388.09C275.31 387.57 273.72 386.33 273.02 385.78C272.82 385.63 272.54 385.62 272.33 385.76C271.55 386.31 269.65 387.62 268.9 388.15C268.67 388.3 268.7 388.64 268.95 388.76C269.07 388.81 268.87 388.72 268.99 388.78C269.36 388.95 269.77 389.04 270.18 389.04C271.14 389.04 273.32 389.04 274.26 389.04Z" id="a2gnmCMkQt"></path><path d="M272.9 389.04C272.98 389.25 273.04 389.39 273.06 389.44C273.28 389.99 273.37 390.58 273.32 391.17C273.29 391.58 273.23 392.27 273.19 392.77C273.16 393.01 272.96 393.2 272.71 393.2C272.47 393.2 271.93 393.2 271.63 393.2C271.56 393.2 271.5 393.14 271.51 393.07C271.6 392.51 271.78 391.37 271.86 390.91C271.93 390.49 271.93 390.06 271.87 389.64C271.86 389.56 271.83 389.36 271.78 389.04L272.9 389.04Z" id="a26YyTIyI"></path><path d="M307.52 340.61C308.44 340.61 309.36 340.43 310.21 340.07C310.53 339.93 310.25 340.05 310.58 339.91C311.15 339.66 311.29 338.91 310.83 338.49C309.59 337.32 306.53 334.46 305.21 333.22C304.86 332.89 304.31 332.87 303.94 333.18C302.44 334.42 298.83 337.42 297.39 338.62C296.94 338.99 297.01 339.7 297.52 339.98C297.74 340.11 297.35 339.89 297.58 340.01C298.29 340.41 299.08 340.61 299.89 340.61C301.7 340.61 305.75 340.61 307.52 340.61Z" id="c4WzKbgCkK"></path><path d="M304.99 340.61C305.19 341.21 305.32 341.58 305.37 341.73C305.75 342.84 305.9 344.02 305.82 345.2C305.75 346.16 305.61 348.02 305.53 349.17C305.49 349.66 305.09 350.04 304.6 350.04C304.14 350.04 303.17 350.04 302.6 350.04C302.45 350.04 302.35 349.91 302.36 349.77C302.53 348.5 302.9 345.75 303.05 344.68C303.16 343.84 303.16 342.99 303.06 342.15C303.04 341.95 302.97 341.43 302.87 340.61L304.99 340.61Z" id="bblhzzqXf"></path><path d="M311.32 345.62C312 345.62 312.67 345.49 313.31 345.25C313.54 345.17 313.31 345.25 313.55 345.16C313.96 345.01 314.05 344.48 313.71 344.2C312.81 343.44 310.62 341.61 309.66 340.81C309.38 340.58 308.98 340.57 308.68 340.78C307.59 341.59 304.99 343.52 303.94 344.29C303.61 344.53 303.66 345.03 304.02 345.21C304.19 345.29 303.87 345.14 304.03 345.22C304.56 345.48 305.15 345.62 305.74 345.62C307.06 345.62 310.03 345.62 311.32 345.62Z" id="c3V2Q5p9ua"></path><path d="M309.47 345.62C309.6 345.94 309.67 346.14 309.71 346.23C310.01 347.03 310.14 347.89 310.07 348.75C310.02 349.35 309.93 350.4 309.87 351.13C309.84 351.49 309.55 351.77 309.19 351.77C308.85 351.77 308.14 351.77 307.72 351.77C307.62 351.77 307.54 351.68 307.55 351.57C307.68 350.75 307.93 349.05 308.04 348.37C308.13 347.76 308.13 347.14 308.05 346.52C308.03 346.4 307.99 346.1 307.92 345.62L309.47 345.62Z" id="d1Km2sWQX"></path><path d="M63.07 340.06C63.74 340.06 64.4 339.93 65.02 339.69C65.25 339.6 65.04 339.68 65.28 339.59C65.68 339.43 65.77 338.89 65.45 338.6C64.55 337.82 62.37 335.9 61.42 335.07C61.16 334.84 60.76 334.82 60.48 335.04C59.41 335.88 56.82 337.89 55.79 338.7C55.46 338.95 55.51 339.45 55.87 339.64C56.04 339.72 55.74 339.57 55.9 339.65C56.41 339.92 56.99 340.06 57.57 340.06C58.88 340.06 61.8 340.06 63.07 340.06Z" id="aht5n06Kc"></path><path d="M61.25 340.06C61.38 340.43 61.47 340.66 61.5 340.75C61.79 341.55 61.91 342.4 61.84 343.24C61.79 343.88 61.7 345.04 61.64 345.81C61.62 346.17 61.32 346.44 60.97 346.44C60.64 346.44 59.94 346.44 59.53 346.44C59.42 346.44 59.35 346.35 59.36 346.25C59.48 345.39 59.74 343.58 59.84 342.87C59.93 342.26 59.93 341.65 59.85 341.05C59.84 340.92 59.79 340.59 59.73 340.06L61.25 340.06Z" id="a13ahFE0jf"></path><path d="M65.85 343.45C66.32 343.45 66.78 343.37 67.23 343.21C67.4 343.15 67.27 343.2 67.45 343.13C67.72 343.04 67.78 342.67 67.55 342.49C66.9 341.98 65.31 340.73 64.61 340.19C64.41 340.03 64.13 340.03 63.92 340.17C63.13 340.72 61.24 342.03 60.48 342.56C60.26 342.71 60.29 343.05 60.54 343.17C60.66 343.22 60.46 343.13 60.58 343.18C60.95 343.36 61.36 343.45 61.77 343.45C62.72 343.45 64.91 343.45 65.85 343.45Z" id="awhmOai92"></path><path d="M64.48 343.45C64.57 343.66 64.63 343.8 64.65 343.85C64.87 344.4 64.96 344.99 64.91 345.58C64.88 345.99 64.82 346.68 64.77 347.17C64.75 347.42 64.55 347.61 64.3 347.61C64.05 347.61 63.52 347.61 63.21 347.61C63.14 347.61 63.09 347.55 63.1 347.48C63.19 346.92 63.37 345.78 63.45 345.32C63.51 344.9 63.52 344.47 63.46 344.05C63.44 343.97 63.42 343.77 63.37 343.45L64.48 343.45Z" id="dhB52oyjy"></path></defs><g><g><g><use xlink:href="#asanctFXN" opacity="1" fill="#81faf3" fill-opacity="1"></use><g><use xlink:href="#asanctFXN" opacity="1" fill-opacity="0" stroke="#54f2e9" stroke-width="2" stroke-opacity="1"></use></g></g><g><use xlink:href="#fSdxJSkjN" opacity="1" fill="#81faf3" fill-opacity="1"></use><g><use xlink:href="#fSdxJSkjN" opacity="1" fill-opacity="0" stroke="#54f2e9" stroke-width="2" stroke-opacity="1"></use></g></g><g><use xlink:href="#c9IUm1uNRB" opacity="1" fill="#81faf3" fill-opacity="1"></use><g><use xlink:href="#c9IUm1uNRB" opacity="1" fill-opacity="0" stroke="#54f2e9" stroke-width="2" stroke-opacity="1"></use></g></g><g><use xlink:href="#cgWy5nq8r" opacity="1" fill="#81faf3" fill-opacity="1"></use><g><use xlink:href="#cgWy5nq8r" opacity="1" fill-opacity="0" stroke="#54f2e9" stroke-width="2" stroke-opacity="1"></use></g></g><g><use xlink:href="#a3CBsVDXl" opacity="1" fill="#81faf3" fill-opacity="1"></use><g><use xlink:href="#a3CBsVDXl" opacity="1" fill-opacity="0" stroke="#54f2e9" stroke-width="2" stroke-opacity="1"></use></g></g><g><use xlink:href="#bj2vbNYzn" opacity="1" fill="#81faf3" fill-opacity="1"></use><g><use xlink:href="#bj2vbNYzn" opacity="1" fill-opacity="0" stroke="#54f2e9" stroke-width="2" stroke-opacity="1"></use></g></g><g><use xlink:href="#hfpQnpYC" opacity="1" fill="#81faf3" fill-opacity="1"></use><g><use xlink:href="#hfpQnpYC" opacity="1" fill-opacity="0" stroke="#54f2e9" stroke-width="2" stroke-opacity="1"></use></g></g><g><use xlink:href="#b1X6PFbq5o" opacity="1" fill="#81faf3" fill-opacity="1"></use><g><use xlink:href="#b1X6PFbq5o" opacity="1" fill-opacity="0" stroke="#54f2e9" stroke-width="2" stroke-opacity="1"></use></g></g><g><use xlink:href="#b4bzFrV5T" opacity="1" fill="#81faf3" fill-opacity="1"></use><g><use xlink:href="#b4bzFrV5T" opacity="1" fill-opacity="0" stroke="#54f2e9" stroke-width="2" stroke-opacity="1"></use></g></g><g><use xlink:href="#b5VRnXsRBS" opacity="1" fill="#81faf3" fill-opacity="1"></use><g><use xlink:href="#b5VRnXsRBS" opacity="1" fill-opacity="0" stroke="#54f2e9" stroke-width="2" stroke-opacity="1"></use></g></g><g><use xlink:href="#c1PtEouk3a" opacity="1" fill="#81faf3" fill-opacity="1"></use><g><use xlink:href="#c1PtEouk3a" opacity="1" fill-opacity="0" stroke="#54f2e9" stroke-width="2" stroke-opacity="1"></use></g></g><g><use xlink:href="#bKY32A9KN" opacity="1" fill="#81faf3" fill-opacity="1"></use><g><use xlink:href="#bKY32A9KN" opacity="1" fill-opacity="0" stroke="#54f2e9" stroke-width="2" stroke-opacity="1"></use></g></g><g><use xlink:href="#f3MaZkVau" opacity="1" fill="#81faf3" fill-opacity="1"></use><g><use xlink:href="#f3MaZkVau" opacity="1" fill-opacity="0" stroke="#54f2e9" stroke-width="2" stroke-opacity="1"></use></g></g><g><use xlink:href="#axpQUrfYp" opacity="1" fill="#81faf3" fill-opacity="1"></use><g><use xlink:href="#axpQUrfYp" opacity="1" fill-opacity="0" stroke="#54f2e9" stroke-width="2" stroke-opacity="1"></use></g></g><g><use xlink:href="#c2Jte7jyzQ" opacity="1" fill="#81faf3" fill-opacity="1"></use><g><use xlink:href="#c2Jte7jyzQ" opacity="1" fill-opacity="0" stroke="#54f2e9" stroke-width="2" stroke-opacity="1"></use></g></g><g><use xlink:href="#b1p3we910" opacity="1" fill="#81faf3" fill-opacity="1"></use><g><use xlink:href="#b1p3we910" opacity="1" fill-opacity="0" stroke="#54f2e9" stroke-width="2" stroke-opacity="1"></use></g></g><g><use xlink:href="#a10c5lyKAt" opacity="1" fill="#81faf3" fill-opacity="1"></use><g><use xlink:href="#a10c5lyKAt" opacity="1" fill-opacity="0" stroke="#54f2e9" stroke-width="2" stroke-opacity="1"></use></g></g><g><use xlink:href="#c25lJTgLCi" opacity="1" fill="#81faf3" fill-opacity="1"></use><g><use xlink:href="#c25lJTgLCi" opacity="1" fill-opacity="0" stroke="#54f2e9" stroke-width="2" stroke-opacity="1"></use></g></g><g><use xlink:href="#h443YLuOuV" opacity="1" fill="#81faf3" fill-opacity="1"></use><g><use xlink:href="#h443YLuOuV" opacity="1" fill-opacity="0" stroke="#54f2e9" stroke-width="2" stroke-opacity="1"></use></g></g><g><use xlink:href="#b3Fhqqq1IK" opacity="1" fill="#81faf3" fill-opacity="1"></use><g><use xlink:href="#b3Fhqqq1IK" opacity="1" fill-opacity="0" stroke="#54f2e9" stroke-width="2" stroke-opacity="1"></use></g></g><g><use xlink:href="#anNEAjSSs" opacity="1" fill="#81faf3" fill-opacity="1"></use><g><use xlink:href="#anNEAjSSs" opacity="1" fill-opacity="0" stroke="#54f2e9" stroke-width="2" stroke-opacity="1"></use></g></g><g><use xlink:href="#h78D0r33a" opacity="1" fill="#81faf3" fill-opacity="1"></use><g><use xlink:href="#h78D0r33a" opacity="1" fill-opacity="0" stroke="#54f2e9" stroke-width="2" stroke-opacity="1"></use></g></g><g><use xlink:href="#a13H8BC4YJ" opacity="1" fill="#81faf3" fill-opacity="1"></use><g><use xlink:href="#a13H8BC4YJ" opacity="1" fill-opacity="0" stroke="#54f2e9" stroke-width="2" stroke-opacity="1"></use></g></g><g><use xlink:href="#b1wyDGXLXN" opacity="1" fill="#81faf3" fill-opacity="1"></use><g><use xlink:href="#b1wyDGXLXN" opacity="1" fill-opacity="0" stroke="#54f2e9" stroke-width="2" stroke-opacity="1"></use></g></g><g><use xlink:href="#abP9yHzLo" opacity="1" fill="#81faf3" fill-opacity="1"></use><g><use xlink:href="#abP9yHzLo" opacity="1" fill-opacity="0" stroke="#54f2e9" stroke-width="2" stroke-opacity="1"></use></g></g><g><use xlink:href="#bVucSMPPP" opacity="1" fill="#81faf3" fill-opacity="1"></use><g><use xlink:href="#bVucSMPPP" opacity="1" fill-opacity="0" stroke="#54f2e9" stroke-width="2" stroke-opacity="1"></use></g></g><g><use xlink:href="#a48VTjBC8Q" opacity="1" fill="#81faf3" fill-opacity="1"></use><g><use xlink:href="#a48VTjBC8Q" opacity="1" fill-opacity="0" stroke="#54f2e9" stroke-width="2" stroke-opacity="1"></use></g></g><g><use xlink:href="#aqG9NcaUO" opacity="1" fill="#81faf3" fill-opacity="1"></use><g><use xlink:href="#aqG9NcaUO" opacity="1" fill-opacity="0" stroke="#54f2e9" stroke-width="2" stroke-opacity="1"></use></g></g><g><use xlink:href="#d60ECnMyXC" opacity="1" fill="#81faf3" fill-opacity="1"></use><g><use xlink:href="#d60ECnMyXC" opacity="1" fill-opacity="0" stroke="#54f2e9" stroke-width="2" stroke-opacity="1"></use></g></g><g><use xlink:href="#dzEQzjcQA" opacity="1" fill="#81faf3" fill-opacity="1"></use><g><use xlink:href="#dzEQzjcQA" opacity="1" fill-opacity="0" stroke="#54f2e9" stroke-width="2" stroke-opacity="1"></use></g></g><g><use xlink:href="#aDT4DQudp" opacity="1" fill="#81faf3" fill-opacity="1"></use><g><use xlink:href="#aDT4DQudp" opacity="1" fill-opacity="0" stroke="#54f2e9" stroke-width="2" stroke-opacity="1"></use></g></g><g><use xlink:href="#f4xZHHaNnU" opacity="1" fill="#81faf3" fill-opacity="1"></use><g><use xlink:href="#f4xZHHaNnU" opacity="1" fill-opacity="0" stroke="#54f2e9" stroke-width="2" stroke-opacity="1"></use></g></g><g><use xlink:href="#bmPURqyr0" opacity="1" fill="#81faf3" fill-opacity="1"></use><g><use xlink:href="#bmPURqyr0" opacity="1" fill-opacity="0" stroke="#54f2e9" stroke-width="2" stroke-opacity="1"></use></g></g><g><use xlink:href="#cuKhszJzu" opacity="1" fill="#81faf3" fill-opacity="1"></use><g><use xlink:href="#cuKhszJzu" opacity="1" fill-opacity="0" stroke="#54f2e9" stroke-width="2" stroke-opacity="1"></use></g></g><g><use xlink:href="#a4ldgz8cd2" opacity="1" fill="#81faf3" fill-opacity="1"></use><g><use xlink:href="#a4ldgz8cd2" opacity="1" fill-opacity="0" stroke="#54f2e9" stroke-width="2" stroke-opacity="1"></use></g></g><g><use xlink:href="#dV4y7DcwD" opacity="1" fill="#81faf3" fill-opacity="1"></use><g><use xlink:href="#dV4y7DcwD" opacity="1" fill-opacity="0" stroke="#54f2e9" stroke-width="2" stroke-opacity="1"></use></g></g><g><use xlink:href="#f3dpYraDw" opacity="1" fill="#81faf3" fill-opacity="1"></use><g><use xlink:href="#f3dpYraDw" opacity="1" fill-opacity="0" stroke="#54f2e9" stroke-width="2" stroke-opacity="1"></use></g></g><g><use xlink:href="#ad4Aw87us" opacity="1" fill="#81faf3" fill-opacity="1"></use><g><use xlink:href="#ad4Aw87us" opacity="1" fill-opacity="0" stroke="#54f2e9" stroke-width="2" stroke-opacity="1"></use></g></g><g><use xlink:href="#g1kiWoQnD" opacity="1" fill="#81faf3" fill-opacity="1"></use><g><use xlink:href="#g1kiWoQnD" opacity="1" fill-opacity="0" stroke="#54f2e9" stroke-width="2" stroke-opacity="1"></use></g></g><g><use xlink:href="#ahEVnm99H" opacity="1" fill="#81faf3" fill-opacity="1"></use><g><use xlink:href="#ahEVnm99H" opacity="1" fill-opacity="0" stroke="#54f2e9" stroke-width="2" stroke-opacity="1"></use></g></g><g><use xlink:href="#bGKJiQJdW" opacity="1" fill="#81faf3" fill-opacity="1"></use><g><use xlink:href="#bGKJiQJdW" opacity="1" fill-opacity="0" stroke="#54f2e9" stroke-width="2" stroke-opacity="1"></use></g></g><g><use xlink:href="#d1aEGVsQzC" opacity="1" fill="#81faf3" fill-opacity="1"></use><g><use xlink:href="#d1aEGVsQzC" opacity="1" fill-opacity="0" stroke="#54f2e9" stroke-width="2" stroke-opacity="1"></use></g></g><g><use xlink:href="#c2KJJXb0H" opacity="1" fill="#81faf3" fill-opacity="1"></use><g><use xlink:href="#c2KJJXb0H" opacity="1" fill-opacity="0" stroke="#54f2e9" stroke-width="2" stroke-opacity="1"></use></g></g><g><use xlink:href="#arVVXTYd7" opacity="1" fill="#81faf3" fill-opacity="1"></use><g><use xlink:href="#arVVXTYd7" opacity="1" fill-opacity="0" stroke="#54f2e9" stroke-width="2" stroke-opacity="1"></use></g></g><g><use xlink:href="#b5WDQ005Jm" opacity="1" fill="#81faf3" fill-opacity="1"></use><g><use xlink:href="#b5WDQ005Jm" opacity="1" fill-opacity="0" stroke="#54f2e9" stroke-width="2" stroke-opacity="1"></use></g></g><g><use xlink:href="#btAFkxPEX" opacity="1" fill="#81faf3" fill-opacity="1"></use><g><use xlink:href="#btAFkxPEX" opacity="1" fill-opacity="0" stroke="#54f2e9" stroke-width="2" stroke-opacity="1"></use></g></g><g><use xlink:href="#d3sWwjK8a6" opacity="1" fill="#81faf3" fill-opacity="1"></use><g><use xlink:href="#d3sWwjK8a6" opacity="1" fill-opacity="0" stroke="#54f2e9" stroke-width="2" stroke-opacity="1"></use></g></g><g><use xlink:href="#d2DtqsW2KK" opacity="1" fill="#81faf3" fill-opacity="1"></use><g><use xlink:href="#d2DtqsW2KK" opacity="1" fill-opacity="0" stroke="#54f2e9" stroke-width="2" stroke-opacity="1"></use></g></g><g><use xlink:href="#dt44kgrMv" opacity="1" fill="#81faf3" fill-opacity="1"></use><g><use xlink:href="#dt44kgrMv" opacity="1" fill-opacity="0" stroke="#54f2e9" stroke-width="2" stroke-opacity="1"></use></g></g><g><use xlink:href="#a8fEiofq" opacity="1" fill="#81faf3" fill-opacity="1"></use><g><use xlink:href="#a8fEiofq" opacity="1" fill-opacity="0" stroke="#54f2e9" stroke-width="2" stroke-opacity="1"></use></g></g><g><use xlink:href="#awsUQoiW" opacity="1" fill="#81faf3" fill-opacity="1"></use><g><use xlink:href="#awsUQoiW" opacity="1" fill-opacity="0" stroke="#54f2e9" stroke-width="2" stroke-opacity="1"></use></g></g><g><use xlink:href="#c5pEXT964h" opacity="1" fill="#81faf3" fill-opacity="1"></use><g><use xlink:href="#c5pEXT964h" opacity="1" fill-opacity="0" stroke="#54f2e9" stroke-width="2" stroke-opacity="1"></use></g></g><g><use xlink:href="#c3iBBJdxzN" opacity="1" fill="#81faf3" fill-opacity="1"></use><g><use xlink:href="#c3iBBJdxzN" opacity="1" fill-opacity="0" stroke="#54f2e9" stroke-width="2" stroke-opacity="1"></use></g></g><g><use xlink:href="#a4qFg2GFgM" opacity="1" fill="#81faf3" fill-opacity="1"></use><g><use xlink:href="#a4qFg2GFgM" opacity="1" fill-opacity="0" stroke="#54f2e9" stroke-width="2" stroke-opacity="1"></use></g></g><g><use xlink:href="#h45qPFBWI1" opacity="1" fill="#81faf3" fill-opacity="1"></use><g><use xlink:href="#h45qPFBWI1" opacity="1" fill-opacity="0" stroke="#54f2e9" stroke-width="2" stroke-opacity="1"></use></g></g><g><use xlink:href="#a6aA5Uic2r" opacity="1" fill="#81faf3" fill-opacity="1"></use><g><use xlink:href="#a6aA5Uic2r" opacity="1" fill-opacity="0" stroke="#54f2e9" stroke-width="2" stroke-opacity="1"></use></g></g><g><use xlink:href="#fgDZzvUY" opacity="1" fill="#81faf3" fill-opacity="1"></use><g><use xlink:href="#fgDZzvUY" opacity="1" fill-opacity="0" stroke="#54f2e9" stroke-width="2" stroke-opacity="1"></use></g></g><g><use xlink:href="#cIkvbcyrq" opacity="1" fill="#81faf3" fill-opacity="1"></use><g><use xlink:href="#cIkvbcyrq" opacity="1" fill-opacity="0" stroke="#54f2e9" stroke-width="2" stroke-opacity="1"></use></g></g><g><use xlink:href="#a3bpARAwl2" opacity="1" fill="#81faf3" fill-opacity="1"></use><g><use xlink:href="#a3bpARAwl2" opacity="1" fill-opacity="0" stroke="#54f2e9" stroke-width="2" stroke-opacity="1"></use></g></g><g><use xlink:href="#guR12TwcQ" opacity="1" fill="#81faf3" fill-opacity="1"></use><g><use xlink:href="#guR12TwcQ" opacity="1" fill-opacity="0" stroke="#54f2e9" stroke-width="2" stroke-opacity="1"></use></g></g><g><use xlink:href="#cjScgwYWy" opacity="1" fill="#81faf3" fill-opacity="1"></use><g><use xlink:href="#cjScgwYWy" opacity="1" fill-opacity="0" stroke="#54f2e9" stroke-width="2" stroke-opacity="1"></use></g></g><g><use xlink:href="#ad1z7PVS9" opacity="1" fill="#81faf3" fill-opacity="1"></use><g><use xlink:href="#ad1z7PVS9" opacity="1" fill-opacity="0" stroke="#54f2e9" stroke-width="2" stroke-opacity="1"></use></g></g><g><use xlink:href="#a4J6Ke3ZHJ" opacity="1" fill="#81faf3" fill-opacity="1"></use><g><use xlink:href="#a4J6Ke3ZHJ" opacity="1" fill-opacity="0" stroke="#54f2e9" stroke-width="2" stroke-opacity="1"></use></g></g><g><use xlink:href="#a6z0mOQSQ" opacity="1" fill="#81faf3" fill-opacity="1"></use><g><use xlink:href="#a6z0mOQSQ" opacity="1" fill-opacity="0" stroke="#54f2e9" stroke-width="2" stroke-opacity="1"></use></g></g><g><use xlink:href="#cdoSTbHJE" opacity="1" fill="#81faf3" fill-opacity="1"></use><g><use xlink:href="#cdoSTbHJE" opacity="1" fill-opacity="0" stroke="#54f2e9" stroke-width="2" stroke-opacity="1"></use></g></g><g><use xlink:href="#bLooQLrjz" opacity="1" fill="#81faf3" fill-opacity="1"></use><g><use xlink:href="#bLooQLrjz" opacity="1" fill-opacity="0" stroke="#54f2e9" stroke-width="2" stroke-opacity="1"></use></g></g><g><use xlink:href="#ermfSrOrI" opacity="1" fill="#81faf3" fill-opacity="1"></use><g><use xlink:href="#ermfSrOrI" opacity="1" fill-opacity="0" stroke="#54f2e9" stroke-width="2" stroke-opacity="1"></use></g></g><g><use xlink:href="#clXfd7Wov" opacity="1" fill="#81faf3" fill-opacity="1"></use><g><use xlink:href="#clXfd7Wov" opacity="1" fill-opacity="0" stroke="#54f2e9" stroke-width="2" stroke-opacity="1"></use></g></g><g><use xlink:href="#b35GNrQcsS" opacity="1" fill="#81faf3" fill-opacity="1"></use><g><use xlink:href="#b35GNrQcsS" opacity="1" fill-opacity="0" stroke="#54f2e9" stroke-width="2" stroke-opacity="1"></use></g></g><g><use xlink:href="#gg9DBSmGt" opacity="1" fill="#81faf3" fill-opacity="1"></use><g><use xlink:href="#gg9DBSmGt" opacity="1" fill-opacity="0" stroke="#54f2e9" stroke-width="2" stroke-opacity="1"></use></g></g><g><use xlink:href="#a2Rqhoty47" opacity="1" fill="#81faf3" fill-opacity="1"></use><g><use xlink:href="#a2Rqhoty47" opacity="1" fill-opacity="0" stroke="#54f2e9" stroke-width="2" stroke-opacity="1"></use></g></g><g><use xlink:href="#btpjqQ0u4" opacity="1" fill="#81faf3" fill-opacity="1"></use><g><use xlink:href="#btpjqQ0u4" opacity="1" fill-opacity="0" stroke="#54f2e9" stroke-width="2" stroke-opacity="1"></use></g></g><g><use xlink:href="#bDRbCSv1l" opacity="1" fill="#81faf3" fill-opacity="1"></use><g><use xlink:href="#bDRbCSv1l" opacity="1" fill-opacity="0" stroke="#54f2e9" stroke-width="2" stroke-opacity="1"></use></g></g><g><use xlink:href="#aqRguWeGd" opacity="1" fill="#81faf3" fill-opacity="1"></use><g><use xlink:href="#aqRguWeGd" opacity="1" fill-opacity="0" stroke="#54f2e9" stroke-width="2" stroke-opacity="1"></use></g></g><g><use xlink:href="#gQDUSxwAB" opacity="1" fill="#81faf3" fill-opacity="1"></use><g><use xlink:href="#gQDUSxwAB" opacity="1" fill-opacity="0" stroke="#54f2e9" stroke-width="2" stroke-opacity="1"></use></g></g><g><use xlink:href="#b2ZxUFsjnV" opacity="1" fill="#81faf3" fill-opacity="1"></use><g><use xlink:href="#b2ZxUFsjnV" opacity="1" fill-opacity="0" stroke="#54f2e9" stroke-width="2" stroke-opacity="1"></use></g></g><g><use xlink:href="#b1JyKd5Say" opacity="1" fill="#81faf3" fill-opacity="1"></use><g><use xlink:href="#b1JyKd5Say" opacity="1" fill-opacity="0" stroke="#54f2e9" stroke-width="2" stroke-opacity="1"></use></g></g><g><use xlink:href="#c33LzCA8en" opacity="1" fill="#81faf3" fill-opacity="1"></use><g><use xlink:href="#c33LzCA8en" opacity="1" fill-opacity="0" stroke="#54f2e9" stroke-width="2" stroke-opacity="1"></use></g></g><g><use xlink:href="#a2gnmCMkQt" opacity="1" fill="#81faf3" fill-opacity="1"></use><g><use xlink:href="#a2gnmCMkQt" opacity="1" fill-opacity="0" stroke="#54f2e9" stroke-width="2" stroke-opacity="1"></use></g></g><g><use xlink:href="#a26YyTIyI" opacity="1" fill="#81faf3" fill-opacity="1"></use><g><use xlink:href="#a26YyTIyI" opacity="1" fill-opacity="0" stroke="#54f2e9" stroke-width="2" stroke-opacity="1"></use></g></g><g><use xlink:href="#c4WzKbgCkK" opacity="1" fill="#81faf3" fill-opacity="1"></use><g><use xlink:href="#c4WzKbgCkK" opacity="1" fill-opacity="0" stroke="#54f2e9" stroke-width="2" stroke-opacity="1"></use></g></g><g><use xlink:href="#bblhzzqXf" opacity="1" fill="#81faf3" fill-opacity="1"></use><g><use xlink:href="#bblhzzqXf" opacity="1" fill-opacity="0" stroke="#54f2e9" stroke-width="2" stroke-opacity="1"></use></g></g><g><use xlink:href="#c3V2Q5p9ua" opacity="1" fill="#81faf3" fill-opacity="1"></use><g><use xlink:href="#c3V2Q5p9ua" opacity="1" fill-opacity="0" stroke="#54f2e9" stroke-width="2" stroke-opacity="1"></use></g></g><g><use xlink:href="#d1Km2sWQX" opacity="1" fill="#81faf3" fill-opacity="1"></use><g><use xlink:href="#d1Km2sWQX" opacity="1" fill-opacity="0" stroke="#54f2e9" stroke-width="2" stroke-opacity="1"></use></g></g><g><use xlink:href="#aht5n06Kc" opacity="1" fill="#81faf3" fill-opacity="1"></use><g><use xlink:href="#aht5n06Kc" opacity="1" fill-opacity="0" stroke="#54f2e9" stroke-width="2" stroke-opacity="1"></use></g></g><g><use xlink:href="#a13ahFE0jf" opacity="1" fill="#81faf3" fill-opacity="1"></use><g><use xlink:href="#a13ahFE0jf" opacity="1" fill-opacity="0" stroke="#54f2e9" stroke-width="2" stroke-opacity="1"></use></g></g><g><use xlink:href="#awhmOai92" opacity="1" fill="#81faf3" fill-opacity="1"></use><g><use xlink:href="#awhmOai92" opacity="1" fill-opacity="0" stroke="#54f2e9" stroke-width="2" stroke-opacity="1"></use></g></g><g><use xlink:href="#dhB52oyjy" opacity="1" fill="#81faf3" fill-opacity="1"></use><g><use xlink:href="#dhB52oyjy" opacity="1" fill-opacity="0" stroke="#54f2e9" stroke-width="2" stroke-opacity="1"></use></g></g></g></g></svg>